<svg id="Layer_1" data-name="Layer 1" xmlns="http://www.w3.org/2000/svg" viewBox="0 0 64 64"><defs><style>.cls-1{fill:#838f9a;}.cls-2{fill:#76cbea;}.cls-3{fill:#fdd870;}.cls-4{fill:#ff22fc;}.cls-5{fill:#1e1814;}</style></defs><path class="cls-1" d="M38,54v4a4,4,0,0,1-4,4H6a4,4,0,0,1-4-4V54Z"/><path class="cls-1" d="M12,8H2V6A4,4,0,0,1,6,2H34a4,4,0,0,1,4,4V8H28l-2,2H14Z"/><polygon class="cls-2" points="28 8 26 10 14 10 12 8 2 8 2 54 38 54 38 43 38 20 38 8 28 8"/><path class="cls-3" d="M33,14H7a1,1,0,0,0-1,1V49a1,1,0,0,0,1,1H33a1,1,0,0,0,1-1V15A1,1,0,0,0,33,14Z"/><path class="cls-4" d="M60,27H58a8.16,8.16,0,0,0-7-6.93A2.52,2.52,0,0,0,48.48,18h-3a2.54,2.54,0,0,0-2.47,2H28.56A10.56,10.56,0,0,0,18,30.56v1.19A10.57,10.57,0,0,0,26,42l.81,3.24a1,1,0,0,0,1,.76h2.44a1,1,0,0,0,1-.76L32,42h1a8.12,8.12,0,0,0,1,.39A13.21,13.21,0,0,0,38,43a12.13,12.13,0,0,0,5-1h1l.81,3.24a1,1,0,0,0,1,.76h2.44a1,1,0,0,0,1-.76L50,42a8,8,0,0,0,7.65-5.77L58,35h2a2,2,0,0,0,2-2V29A2,2,0,0,0,60,27Z"/><rect class="cls-5" x="15" y="57" width="10" height="2"/><circle class="cls-5" cx="25" cy="6" r="1"/><circle class="cls-5" cx="15" cy="6" r="1"/><rect class="cls-5" x="18" y="5" width="4" height="2"/><path class="cls-5" d="M21,30.56V31h2v-.44a5.57,5.57,0,0,1,3.39-5.12l-.78-1.84A7.55,7.55,0,0,0,21,30.56Z"/><path class="cls-5" d="M26.76,23.22l.48,1.94A5.36,5.36,0,0,1,28.56,25H29V23h-.44A7.33,7.33,0,0,0,26.76,23.22Z"/><path class="cls-5" d="M60,26H58.83a9.16,9.16,0,0,0-7.09-6.78A3.5,3.5,0,0,0,48.48,17h-3a3.5,3.5,0,0,0-3.16,2H39V6a5,5,0,0,0-5-5H6A5,5,0,0,0,1,6V58a5,5,0,0,0,5,5H34a5,5,0,0,0,5-5V44a13.22,13.22,0,0,0,4.22-1l.62,2.48A2,2,0,0,0,45.78,47h2.44a2,2,0,0,0,1.94-1.52L50.79,43a9,9,0,0,0,7.82-6.46l.14-.5H60a3,3,0,0,0,3-3V29A3,3,0,0,0,60,26ZM45.52,19h3A1.52,1.52,0,0,1,50,20.52a1.55,1.55,0,0,1-.11.56l-1.18,3A1.52,1.52,0,0,1,47.3,25h-.6a1.5,1.5,0,0,1-1.4-.95l-1.19-3a1.55,1.55,0,0,1-.11-.56A1.52,1.52,0,0,1,45.52,19ZM35,19V15a2,2,0,0,0-2-2H7a2,2,0,0,0-2,2V49a2,2,0,0,0,2,2H33a2,2,0,0,0,2-2V43.68A13.2,13.2,0,0,0,37,44v9H3V9h8.59l2,2H26.41l2-2H37V19ZM25.17,42.81l.67,2.67A2,2,0,0,0,27.78,47h2.44a2,2,0,0,0,1.94-1.52L32.78,43h0l.22.09V49H7V15H33v4H28.56A11.58,11.58,0,0,0,17,30.56v1.19A11.54,11.54,0,0,0,25.17,42.81ZM6,3H34a3,3,0,0,1,3,3V7H27.59l-2,2H14.41l-2-2H3V6A3,3,0,0,1,6,3ZM34,61H6a3,3,0,0,1-3-3V55H37v3A3,3,0,0,1,34,61ZM61,33a1,1,0,0,1-1,1H57.25l-.56,2A7,7,0,0,1,50,41h-.78l-1,4H45.78l-1-4h-2l-.21.11A11.31,11.31,0,0,1,38,42a11.48,11.48,0,0,1-4.55-.89L33.24,41h-2l-1,4H27.78l-1-3.82L26.24,41A9.55,9.55,0,0,1,19,31.75V30.56A9.57,9.57,0,0,1,28.56,21H42.05a3.39,3.39,0,0,0,.2.82l1.19,3A3.51,3.51,0,0,0,46.7,27h.6a3.51,3.51,0,0,0,3.26-2.21l1.19-3a3.21,3.21,0,0,0,.15-.53A7.16,7.16,0,0,1,57,27.14l.12.86H60a1,1,0,0,1,1,1Z"/><circle class="cls-5" cx="53" cy="26" r="1"/><path class="cls-5" d="M36,29a1,1,0,0,1,1,1h2a3,3,0,0,0-2-2.82V25H35v2H33v3a3,3,0,0,0,3,3,1,1,0,0,1,1,1v1H36a1,1,0,0,1-1-1H33a3,3,0,0,0,2,2.82V39h2V37h2V34a3,3,0,0,0-3-3,1,1,0,0,1-1-1V29Z"/></svg>